# Blender v2.60 (sub 0) OBJ File: 'test_scene_01_1.blend'
# www.blender.org
mtllib ledder.mtl
o ledder
v 2.174811 0.000000 0.051478
v -2.174811 0.000000 0.051478
v 2.174811 15.633198 0.051478
v -2.174811 15.633198 0.051478
v 2.174811 15.633198 -0.217532
v -2.174811 15.633198 -0.217532
v 2.174811 0.000000 -0.217532
v -2.174811 0.000000 -0.217532
v 1.578878 0.000000 0.051478
v -1.578878 0.000000 0.051478
v 1.578878 15.633198 0.051478
v -1.578878 15.633198 0.051478
v 1.578878 15.633198 -0.217532
v -1.578878 15.633198 -0.217532
v 1.578878 0.000000 -0.217532
v -1.578878 0.000000 -0.217532
v -1.578878 7.577936 -0.182725
v -1.578878 8.055262 -0.182725
v -1.578878 8.055262 0.016671
v -1.578878 7.577936 0.016671
v 1.597203 8.055262 0.016671
v 1.597203 7.577936 0.016671
v 1.597203 8.055262 -0.182725
v 1.597203 7.577936 -0.182725
v 1.597203 6.295637 -0.182725
v 1.597203 6.772962 -0.182725
v 1.597203 6.295637 0.016671
v 1.597203 6.772962 0.016671
v -1.578878 6.295637 0.016671
v -1.578878 6.772962 0.016671
v -1.578878 6.772962 -0.182725
v -1.578878 6.295637 -0.182725
v -1.578878 5.154507 -0.182725
v -1.578878 5.631832 -0.182725
v -1.578878 5.631832 0.016671
v -1.578878 5.154507 0.016671
v 1.597203 5.631832 0.016671
v 1.597203 5.154507 0.016671
v 1.597203 5.631832 -0.182725
v 1.597203 5.154507 -0.182725
v 1.597203 3.978085 -0.182725
v 1.597203 4.455410 -0.182725
v 1.597203 3.978085 0.016671
v 1.597203 4.455410 0.016671
v -1.578878 3.978085 0.016671
v -1.578878 4.455410 0.016671
v -1.578878 4.455410 -0.182725
v -1.578878 3.978085 -0.182725
v -1.578878 2.813427 -0.182725
v -1.578878 3.290752 -0.182725
v -1.578878 3.290752 0.016671
v -1.578878 2.813427 0.016671
v 1.597203 3.290752 0.016671
v 1.597203 2.813427 0.016671
v 1.597203 3.290752 -0.182725
v 1.597203 2.813427 -0.182725
v 1.597203 1.707590 -0.182725
v 1.597203 2.184916 -0.182725
v 1.597203 1.707590 0.016671
v 1.597203 2.184916 0.016671
v -1.578878 1.707590 0.016671
v -1.578878 2.184916 0.016671
v -1.578878 2.184916 -0.182725
v -1.578878 1.707590 -0.182725
v -1.578878 0.531169 -0.182725
v -1.578878 1.008495 -0.182725
v -1.578878 1.008495 0.016671
v -1.578878 0.531169 0.016671
v 1.597203 1.008495 0.016671
v 1.597203 0.531169 0.016671
v 1.597203 1.008495 -0.182725
v 1.597203 0.531169 -0.182725
v 1.597203 8.776439 -0.182725
v 1.597203 9.253764 -0.182725
v 1.597203 8.776439 0.016671
v 1.597203 9.253764 0.016671
v -1.578878 8.776439 0.016671
v -1.578878 9.253764 0.016671
v -1.578878 9.253764 -0.182725
v -1.578878 8.776439 -0.182725
v -1.578878 9.952860 -0.182725
v -1.578878 10.430185 -0.182725
v -1.578878 10.430185 0.016671
v -1.578878 9.952860 0.016671
v 1.597203 10.430185 0.016671
v 1.597203 9.952860 0.016671
v 1.597203 10.430185 -0.182725
v 1.597203 9.952860 -0.182725
v 1.597203 11.058697 -0.182725
v 1.597203 11.536022 -0.182725
v 1.597203 11.058697 0.016671
v 1.597203 11.536022 0.016671
v -1.578878 11.058697 0.016671
v -1.578878 11.536022 0.016671
v -1.578878 11.536022 -0.182725
v -1.578878 11.058697 -0.182725
v -1.578878 12.223354 -0.182725
v -1.578878 12.700680 -0.182725
v -1.578878 12.700680 0.016671
v -1.578878 12.223354 0.016671
v 1.597203 12.700680 0.016671
v 1.597203 12.223354 0.016671
v 1.597203 12.700680 -0.182725
v 1.597203 12.223354 -0.182725
v 1.597203 13.399776 -0.182725
v 1.597203 13.877102 -0.182725
v 1.597203 13.399776 0.016671
v 1.597203 13.877102 0.016671
v -1.578878 13.399776 0.016671
v -1.578878 13.877102 0.016671
v -1.578878 13.877102 -0.182725
v -1.578878 13.399776 -0.182725
v -1.578878 14.619491 -0.182725
v -1.578878 15.096816 -0.182725
v -1.578878 15.096816 0.016671
v -1.578878 14.619491 0.016671
v 1.597203 15.096816 0.016671
v 1.597203 14.619491 0.016671
v 1.597203 15.096816 -0.182725
v 1.597203 14.619491 -0.182725
vt 0.317791 0.000082
vt 0.344427 0.000000
vt 0.349175 1.547921
vt 0.322539 1.548003
vt 0.317791 1.547921
vt 0.291154 1.548002
vt 0.286406 0.000082
vt 0.313042 0.000000
vt 0.255021 1.547921
vt 0.196015 1.548102
vt 0.191266 0.000181
vt 0.250272 0.000000
vt 0.063755 0.000181
vt 0.122762 0.000000
vt 0.127511 1.547921
vt 0.068504 1.548102
vt 0.999819 0.510989
vt 1.000000 0.569995
vt 0.973364 0.570077
vt 0.973183 0.511070
vt 0.999819 0.570077
vt 1.000000 0.629083
vt 0.973364 0.629165
vt 0.973183 0.570158
vt 0.999819 0.314625
vt 1.000000 0.373631
vt 0.973364 0.373713
vt 0.973183 0.314706
vt 0.999819 0.373713
vt 1.000000 0.432719
vt 0.973364 0.432800
vt 0.973183 0.373794
vt 0.132259 0.000000
vt 0.186517 1.548102
vt 0.063755 1.547921
vt 0.004749 1.548102
vt 0.000000 0.000181
vt 0.059006 0.000000
vt 0.281657 0.000000
vt 0.286406 1.547921
vt 0.259770 1.548002
vt 0.255021 0.000082
vt 0.349175 0.000082
vt 0.375811 0.000000
vt 0.380560 1.547921
vt 0.353924 1.548003
vt 0.910094 0.314624
vt 0.911059 0.629104
vt 0.863797 0.629249
vt 0.862832 0.314770
vt 0.973183 0.943644
vt 0.974148 0.629165
vt 0.993891 0.629225
vt 0.992926 0.943705
vt 0.912024 0.314624
vt 0.931767 0.314685
vt 0.930802 0.629165
vt 0.477980 0.629249
vt 0.477015 0.314770
vt 0.524277 0.314625
vt 0.525242 0.629104
vt 0.477979 0.314625
vt 0.477015 0.000145
vt 0.524277 0.000000
vt 0.525242 0.314480
vt 0.801947 0.314625
vt 0.800982 0.000145
vt 0.820726 0.000084
vt 0.821690 0.314564
vt 0.966646 0.314564
vt 0.967611 0.000084
vt 0.987354 0.000145
vt 0.986389 0.314624
vt 0.620732 0.314624
vt 0.621696 0.629104
vt 0.574434 0.629249
vt 0.573469 0.314769
vt 0.911059 0.629394
vt 0.910094 0.943874
vt 0.862832 0.943729
vt 0.952475 0.629104
vt 0.953440 0.314625
vt 0.973183 0.314685
vt 0.972218 0.629165
vt 0.904522 0.314564
vt 0.905487 0.000084
vt 0.925230 0.000145
vt 0.924265 0.314625
vt 0.670888 0.943874
vt 0.669924 0.629394
vt 0.717186 0.629249
vt 0.718151 0.943729
vt 0.719115 0.629249
vt 0.718151 0.314770
vt 0.765413 0.314624
vt 0.766378 0.629104
vt 0.863106 0.314564
vt 0.864071 0.000084
vt 0.883814 0.000145
vt 0.882849 0.314624
vt 0.952475 0.943644
vt 0.953440 0.629165
vt 0.973183 0.629225
vt 0.972218 0.943705
vt 0.765413 0.629249
vt 0.766378 0.943729
vt 0.719115 0.943874
vt 0.718151 0.629394
vt 0.813640 0.314624
vt 0.814605 0.629104
vt 0.767343 0.629249
vt 0.766378 0.314770
vt 0.945938 0.314564
vt 0.946903 0.000084
vt 0.966646 0.000145
vt 0.965681 0.314624
vt 0.781239 0.314624
vt 0.780274 0.000145
vt 0.800018 0.000084
vt 0.800982 0.314564
vt 0.815570 0.629249
vt 0.814605 0.314770
vt 0.861867 0.314624
vt 0.862832 0.629104
vt 0.573469 0.943729
vt 0.621696 0.629394
vt 0.620732 0.943874
vt 0.719115 0.314624
vt 0.718150 0.000145
vt 0.737894 0.000084
vt 0.738858 0.314564
vt 0.931767 0.629104
vt 0.932732 0.314625
vt 0.952475 0.314685
vt 0.951510 0.629165
vt 0.717186 0.314624
vt 0.718151 0.629104
vt 0.670888 0.629249
vt 0.669923 0.314769
vt 0.445401 0.312671
vt 0.446365 0.627151
vt 0.399103 0.627296
vt 0.398138 0.312816
vt 0.931767 0.943644
vt 0.932732 0.629165
vt 0.952475 0.629225
vt 0.951510 0.943705
vt 0.886332 0.351734
vt 0.885367 0.037254
vt 0.905110 0.037194
vt 0.906075 0.351673
vt 0.622661 0.314624
vt 0.669923 0.314770
vt 0.668959 0.629249
vt 0.573469 0.314480
vt 0.574434 0.000000
vt 0.621696 0.000145
vt 0.822655 0.000084
vt 0.842398 0.000145
vt 0.841434 0.314624
vt 0.925230 0.314564
vt 0.926195 0.000084
vt 0.945938 0.000145
vt 0.944973 0.314624
vt 0.525241 0.629394
vt 0.524277 0.943874
vt 0.477015 0.943729
vt 0.477979 0.629249
vt 0.572504 0.000000
vt 0.526207 0.314625
vt 0.525242 0.000145
vt 0.380560 0.943729
vt 0.381525 0.629249
vt 0.401268 0.629310
vt 0.400303 0.943789
vt 0.760531 0.314624
vt 0.759566 0.000145
vt 0.779310 0.000084
vt 0.780274 0.314564
vt 0.428787 0.314480
vt 0.429752 0.000000
vt 0.476050 0.314625
vt 0.428787 0.629104
vt 0.429752 0.314625
vt 0.476050 0.629249
vt 0.911059 0.943644
vt 0.912024 0.629165
vt 0.931767 0.629225
vt 0.930802 0.943705
vt 0.408079 0.943729
vt 0.409044 0.629249
vt 0.428787 0.629310
vt 0.427822 0.943789
vt 0.669923 0.314480
vt 0.670888 0.000000
vt 0.572504 0.314625
vt 0.573469 0.629104
vt 0.526206 0.629249
vt 0.525242 0.314770
vt 0.621696 0.943729
vt 0.622661 0.629249
vt 0.642404 0.629310
vt 0.641439 0.943789
vt 0.739823 0.314624
vt 0.738858 0.000145
vt 0.758602 0.000084
vt 0.759566 0.314564
vt 0.380560 0.314480
vt 0.381524 0.000000
vt 0.428787 0.000145
vt 0.427822 0.314625
vt 0.429753 0.943874
vt 0.428788 0.629394
vt 0.883814 0.314564
vt 0.884779 0.000084
vt 0.904522 0.000145
vt 0.903557 0.314624
vt 0.649216 0.943729
vt 0.650180 0.629249
vt 0.669923 0.629310
vt 0.668959 0.943789
vt 0.668959 0.000000
vt 0.862832 0.629394
vt 0.861867 0.943874
vt 0.814605 0.943729
vt 0.525242 0.943729
vt 0.526207 0.629249
vt 0.545950 0.629310
vt 0.544985 0.943789
vt 0.552761 0.943729
vt 0.553726 0.629249
vt 0.573469 0.629310
vt 0.572504 0.943789
vt 0.767343 0.943874
vt 0.766378 0.629394
vt 0.813640 0.629249
vn 1.000000 0.000000 0.000000
vn -1.000000 0.000000 0.000000
vn 0.000000 0.000000 1.000000
vn 0.000000 1.000000 0.000000
vn 0.000000 -1.000000 0.000000
vn 0.000000 -0.000000 -1.000000
usemtl Material_basic_wood_01.jpg
s off
f 1/1/1 7/2/1 5/3/1 3/4/1
f 4/5/2 6/6/2 8/7/2 2/8/2
f 9/9/3 1/10/3 3/11/3 11/12/3
f 12/13/3 4/14/3 2/15/3 10/16/3
f 5/17/4 13/18/4 11/19/4 3/20/4
f 14/21/4 6/22/4 4/23/4 12/24/4
f 1/25/5 9/26/5 15/27/5 7/28/5
f 10/29/5 2/30/5 8/31/5 16/32/5
f 7/33/6 15/11/6 13/34/6 5/15/6
f 16/35/6 8/36/6 6/37/6 14/38/6
f 9/39/2 11/40/2 13/41/2 15/42/2
f 10/43/1 16/44/1 14/45/1 12/46/1
f 20/47/3 22/48/3 21/49/3 19/50/3
f 19/51/4 21/52/4 23/53/4 18/54/4
f 17/48/5 24/55/5 22/56/5 20/57/5
f 18/58/6 23/59/6 24/60/6 17/61/6
f 31/62/6 26/63/6 25/64/6 32/65/6
f 32/66/5 25/67/5 27/68/5 29/69/5
f 30/70/4 28/71/4 26/72/4 31/73/4
f 29/74/3 27/75/3 28/76/3 30/77/3
f 36/78/3 38/79/3 37/80/3 35/49/3
f 35/81/4 37/82/4 39/83/4 34/84/4
f 33/85/5 40/86/5 38/87/5 36/88/5
f 34/89/6 39/90/6 40/91/6 33/92/6
f 47/93/6 42/94/6 41/95/6 48/96/6
f 48/97/5 41/98/5 43/99/5 45/100/5
f 46/101/4 44/102/4 42/103/4 47/104/4
f 45/105/3 43/106/3 44/107/3 46/108/3
f 52/109/3 54/110/3 53/111/3 51/112/3
f 51/113/4 53/114/4 55/115/4 50/116/4
f 49/117/5 56/118/5 54/119/5 52/120/5
f 50/121/6 55/122/6 56/123/6 49/124/6
f 63/125/6 58/76/6 57/126/6 64/127/6
f 64/128/5 57/129/5 59/130/5 61/131/5
f 62/132/4 60/133/4 58/134/4 63/135/4
f 61/136/3 59/137/3 60/138/3 62/139/3
f 68/140/3 70/141/3 69/142/3 67/143/3
f 67/144/4 69/145/4 71/146/4 66/147/4
f 65/148/5 72/149/5 70/150/5 68/151/5
f 66/75/6 71/152/6 72/153/6 65/154/6
f 79/155/6 74/156/6 73/157/6 80/74/6
f 80/69/5 73/158/5 75/159/5 77/160/5
f 78/161/4 76/162/4 74/163/4 79/164/4
f 77/165/3 75/166/3 76/167/3 78/168/3
f 84/169/3 86/155/3 85/170/3 83/171/3
f 83/172/4 85/173/4 87/174/4 82/175/4
f 81/176/5 88/177/5 86/178/5 84/179/5
f 82/180/6 87/181/6 88/63/6 81/182/6
f 95/183/6 90/184/6 89/59/6 96/185/6
f 96/186/5 89/187/5 91/188/5 93/189/5
f 94/190/4 92/191/4 90/192/4 95/193/4
f 93/129/3 91/136/3 92/194/3 94/195/3
f 100/196/3 102/197/3 101/198/3 99/199/3
f 99/200/4 101/201/4 103/202/4 98/203/4
f 97/204/5 104/205/5 102/206/5 100/207/5
f 98/208/6 103/209/6 104/210/6 97/211/6
f 111/212/6 106/213/6 105/185/6 112/167/6
f 112/214/5 105/215/5 107/216/5 109/217/5
f 110/218/4 108/219/4 106/220/4 111/221/4
f 109/222/3 107/194/3 108/152/3 110/157/3
f 116/223/3 118/224/3 117/225/3 115/121/3
f 115/226/4 117/227/4 119/228/4 114/229/4
f 113/230/5 120/231/5 118/232/5 116/233/5
f 114/234/6 119/235/6 120/236/6 113/225/6
