# Blender v2.60 (sub 0) OBJ File: 'test_scene_01_1.blend'
# www.blender.org
mtllib ledder_l.mtl
o ledder_l_ledder.001
v -2.174811 0.000000 0.000000
v 2.174811 0.000000 0.000000
v 2.174811 0.000000 -0.166054
v -2.174811 0.000000 -0.166054
v -2.174811 16.005623 -0.166054
v 2.174811 16.005623 -0.166054
v 2.174811 16.005623 0.000000
v -2.174811 16.005623 0.000000
vt 0.000000 0.000000
vt 1.000000 0.000000
vt 1.000000 1.000000
vt 0.000000 1.000000
vn 0.000000 -1.000000 0.000000
vn 1.000000 0.000000 0.000000
vn 0.000000 -0.000000 -1.000000
vn -1.000000 -0.000000 0.000000
vn 0.000000 0.000000 1.000000
vn 0.000000 1.000000 0.000000
usemtl Material
s off
f 2/1/1 1/2/1 4/3/1 3/4/1
f 2/1/2 3/2/2 6/3/2 7/4/2
f 3/1/3 4/2/3 5/3/3 6/4/3
f 4/3/4 1/4/4 8/1/4 5/2/4
f 1/3/5 2/4/5 7/1/5 8/2/5
f 5/1/6 8/2/6 7/3/6 6/4/6
