# Blender v2.60 (sub 0) OBJ File: 'test_scene_01_1.blend'
# www.blender.org
mtllib obj03_l.mtl
o obj03_l_obj03.001
v -33.375874 -0.000731 -43.826309
v -27.265186 -0.000731 -43.826309
v -27.265181 -0.000731 -37.532639
v -33.375870 -0.000731 -37.532639
v -33.375874 -0.000731 -31.238968
v -27.265186 -0.000731 -31.238968
v -33.375874 -0.000731 -22.365173
v -27.265186 -0.000731 -22.365173
v -27.265181 7.554136 -19.785049
v -33.375870 7.554136 -19.785049
v -27.265181 -0.000731 -50.119980
v -33.375870 -0.000731 -50.119980
v -33.375874 -0.000731 -19.785049
v -27.265186 -0.000731 -19.785049
v -33.375874 -0.000731 -24.945297
v -27.265186 -0.000731 -24.945297
v -20.877266 7.554136 -31.238968
v -20.877266 7.554136 -37.532639
v -20.877266 7.554136 -43.826309
v -39.763790 7.554136 -31.238968
v -39.763790 7.554136 -37.532639
v -39.763790 7.554136 -43.826309
v -39.763790 -0.000731 -43.826309
v -39.763790 -0.000731 -37.532639
v -39.763790 -0.000731 -31.238968
v -20.877266 -0.000731 -43.826309
v -20.877266 -0.000731 -37.532639
v -20.877266 -0.000731 -31.238968
v -20.465879 -0.000731 -22.365173
v -15.054493 -0.000731 -22.365173
v -9.643106 -0.000731 -22.365173
v -2.935201 -0.000731 -22.365173
v 3.234283 -0.000731 -22.365173
v -39.763790 7.554136 -22.365173
v -39.763790 -0.000731 -22.365173
v -20.877266 -0.000731 -22.365173
v -9.231720 -0.000731 -22.365173
v 9.530802 -0.000731 -22.365173
v 9.530802 6.657833 -22.365173
v -20.465879 -0.000731 -19.785049
v -15.054493 -0.000731 -19.785049
v -9.643106 -0.000731 -19.785049
v -20.465879 -0.000731 -24.945297
v -15.054493 -0.000731 -24.945297
v -9.643106 -0.000731 -24.945297
v -2.935201 -0.000731 -12.856697
v -2.935200 -0.000731 -5.928352
v 3.234283 -0.000731 -12.856697
v 3.234284 -0.000731 -5.928352
v -9.231720 6.657835 -12.856697
v -9.231720 6.657835 -5.928352
v -9.231720 -0.000731 -12.856697
v -9.231720 -0.000731 -5.928352
v 9.530802 -0.000731 -12.856697
v 9.530802 -0.000731 -5.928352
v 9.530802 6.657833 -12.856697
v 9.530802 6.657833 -5.928352
v -2.935201 -0.000731 -24.945297
v 3.234283 -0.000731 -24.945297
v -2.935201 -0.000731 -19.785049
v 3.234283 -0.000731 -19.785049
v -2.935201 -0.000731 -29.457443
v 3.234283 -0.000731 -29.457443
v 3.234284 -0.000731 1.000000
v -2.935200 -0.000731 1.000000
v -20.877266 7.554136 -19.785049
v -39.763790 7.554136 -19.785049
v -20.877266 7.554136 -24.945297
v -20.877266 7.554136 -50.119980
v -39.763790 7.554136 -24.945297
v -39.763790 7.554136 -50.119980
v -20.877266 -0.000731 -50.119980
v -39.763790 -0.000731 -50.119980
v -39.763790 -0.000731 -19.785049
v -39.763790 -0.000731 -24.945297
v -20.877266 -0.000731 -24.945297
v -20.877266 -0.000731 -19.785049
v -9.231720 6.657833 -24.945297
v -9.231720 -0.000731 -24.945297
v 9.530802 -0.000731 -24.945297
v 9.530802 6.657833 -24.945297
v -9.231720 6.657835 -19.785049
v -9.231720 -0.000731 -19.785049
v 9.530802 -0.000731 -19.785049
v 9.530802 6.657833 -19.785049
v -9.231720 6.657835 -29.457443
v -9.231720 -0.000731 -29.457443
v 9.530802 6.657833 -29.457443
v 9.530802 -0.000731 -29.457443
v -9.231720 6.657835 1.000000
v 9.530802 6.657833 1.000000
v 9.530802 -0.000731 1.000000
v -9.231720 -0.000731 1.000000
v 3.234283 6.657834 -29.457443
v -2.935201 6.657835 -29.457443
vt 1.000000 1.000000
vt 0.000000 1.000000
vt 0.000000 0.000000
vt 1.000000 0.000000
vn 0.000000 1.000000 -0.000000
vn 0.000000 -0.000000 -1.000000
vn -1.000000 -0.000000 0.000000
vn 1.000000 0.000000 0.000000
vn 0.000000 0.000000 1.000000
usemtl Material
s off
f 23/1/1 1/2/1 12/3/1 73/4/1
f 1/1/1 2/2/1 11/3/1 12/4/1
f 72/3/1 11/4/1 2/1/1 26/2/1
f 1/3/1 23/4/1 24/1/1 4/2/1
f 2/3/1 1/4/1 4/1/1 3/2/1
f 26/3/1 2/4/1 3/1/1 27/2/1
f 4/3/1 24/4/1 25/1/1 5/2/1
f 3/3/1 4/4/1 5/1/1 6/2/1
f 27/3/1 3/4/1 6/1/1 28/2/1
f 5/3/1 25/4/1 75/1/1 15/2/1
f 6/3/1 5/4/1 15/1/1 16/2/1
f 28/3/1 6/4/1 16/1/1 76/2/1
f 15/3/1 75/4/1 35/1/1 7/2/1
f 16/3/1 15/4/1 7/1/1 8/2/1
f 76/3/1 16/4/1 8/1/1 36/2/1
f 7/3/1 35/4/1 74/1/1 13/2/1
f 8/3/1 7/4/1 13/1/1 14/2/1
f 36/3/1 8/4/1 14/1/1 77/2/1
f 13/3/2 74/4/2 67/1/2 10/2/2
f 14/3/2 13/4/2 10/1/2 9/2/2
f 77/3/2 14/4/2 9/1/2 66/2/2
f 28/3/3 76/4/3 68/1/3 17/2/3
f 27/3/3 28/4/3 17/1/3 18/2/3
f 26/3/3 27/4/3 18/1/3 19/2/3
f 72/3/3 26/4/3 19/1/3 69/2/3
f 23/3/4 73/4/4 71/1/4 22/2/4
f 24/3/4 23/4/4 22/1/4 21/2/4
f 25/3/4 24/4/4 21/1/4 20/2/4
f 75/3/4 25/4/4 20/1/4 70/2/4
f 36/3/1 77/4/1 40/1/1 29/2/1
f 76/3/1 36/4/1 29/1/1 43/2/1
f 29/3/1 40/4/1 41/1/1 30/2/1
f 43/3/1 29/4/1 30/1/1 44/2/1
f 30/3/1 41/4/1 42/1/1 31/2/1
f 44/3/1 30/4/1 31/1/1 45/2/1
f 31/3/1 42/4/1 83/1/1 37/2/1
f 45/3/1 31/4/1 37/1/1 79/2/1
f 37/3/1 83/4/1 60/1/1 32/2/1
f 79/3/1 37/4/1 32/1/1 58/2/1
f 32/3/1 60/4/1 61/1/1 33/2/1
f 58/3/1 32/4/1 33/1/1 59/2/1
f 33/3/1 61/4/1 84/1/1 38/2/1
f 59/3/1 33/4/1 38/1/1 80/2/1
f 35/3/4 75/4/4 70/1/4 34/2/4
f 74/3/4 35/4/4 34/1/4 67/2/4
f 39/3/3 81/4/3 80/1/3 38/2/3
f 85/3/3 39/4/3 38/1/3 84/2/3
f 53/3/1 93/4/1 65/1/1 47/2/1
f 52/3/1 53/4/1 47/1/1 46/2/1
f 83/3/1 52/4/1 46/1/1 60/2/1
f 47/3/1 65/4/1 64/1/1 49/2/1
f 46/3/1 47/4/1 49/1/1 48/2/1
f 60/3/1 46/4/1 48/1/1 61/2/1
f 49/3/1 64/4/1 92/1/1 55/2/1
f 48/3/1 49/4/1 55/1/1 54/2/1
f 61/3/1 48/4/1 54/1/1 84/2/1
f 52/3/4 83/4/4 82/1/4 50/2/4
f 53/3/4 52/4/4 50/1/4 51/2/4
f 93/3/4 53/4/4 51/1/4 90/2/4
f 56/3/3 85/4/3 84/1/3 54/2/3
f 57/3/3 56/4/3 54/1/3 55/2/3
f 91/3/3 57/4/3 55/1/3 92/2/3
f 62/3/1 87/4/1 79/1/1 58/2/1
f 63/3/1 62/4/1 58/1/1 59/2/1
f 89/3/1 63/4/1 59/1/1 80/2/1
f 79/3/4 87/4/4 86/1/4 78/2/4
f 81/3/3 88/4/3 89/1/3 80/2/3
f 63/3/5 89/4/5 88/1/5 94/2/5
f 62/3/5 63/4/5 94/1/5 95/2/5
f 87/3/5 62/4/5 95/1/5 86/2/5
